<?xml version="1.0" encoding="utf-8"?>
<!-- Generator: Adobe Illustrator 25.1.0, SVG Export Plug-In . SVG Version: 6.00 Build 0)  -->
<svg version="1.1" id="Layer_1" xmlns="http://www.w3.org/2000/svg" xmlns:xlink="http://www.w3.org/1999/xlink" x="0px" y="0px"
	 viewBox="0 0 100 100" style="enable-background:new 0 0 100 100;" xml:space="preserve">
<g fill="#000">
	<path d="M0,0v100h100V0H0z M86.5,55.3c-1.8,3.9-4.5,7.2-7.9,10c-2,1.6-4.1,2.8-6.4,3.6c-2.3,0.8-4.7,1.2-7.2,1.2
		c-3,0-5.2-0.6-6.7-1.8c-1.5-1.2-2.3-2.9-2.3-5.2c-1.5,2.4-3.3,4.1-5.3,5.2c-2,1.1-4.4,1.7-7.1,1.7c-4.4,0-7.8-1.2-10.1-3.6
		c-2.3-2.4-3.5-6-3.5-10.7c0-6.7,2-12.3,5.9-16.8s8.7-6.8,14.4-6.8c2.2,0,4.2,0.5,5.8,1.4s3,2.3,4.1,4.1l2.2-4.1h7.5l-6.2,25.1
		c-0.1,0.3-0.2,0.6-0.2,0.9c-0.1,0.3-0.1,0.6-0.1,0.8c0,1,0.3,1.7,1,2.2c0.7,0.5,1.7,0.7,3,0.7c1.1,0,2.2-0.3,3.4-0.8
		c1.2-0.6,2.3-1.3,3.3-2.4c2.4-2.2,4.2-4.9,5.5-7.9c1.2-3,1.9-6.3,1.9-9.9c0-6.7-2.6-12.2-7.8-16.6c-5.2-4.3-11.9-6.5-20.1-6.5
		c-3.9,0-7.6,0.5-11,1.4c-3.4,1-6.5,2.4-9.3,4.2c-4.8,3.2-8.4,7.2-11,12c-2.6,4.8-3.8,10-3.8,15.8c0,8.6,2.9,15.5,8.7,20.6
		c5.8,5.1,13.5,7.7,23.2,7.7c4.5,0,9-0.7,13.3-2.1c4.3-1.4,8.4-3.4,12.1-6l3.4,4.9c-4.3,3.2-8.8,5.6-13.6,7.3s-9.8,2.4-15,2.4
		c-5.4,0-10.3-0.7-14.8-2c-4.5-1.4-8.5-3.4-12-6c-4.3-3.4-7.6-7.3-9.7-11.7c-2.2-4.4-3.2-9.4-3.2-15c0-4.7,0.7-9.1,2.2-13.4
		c1.5-4.2,3.6-8.1,6.5-11.6c4.1-5.1,9.1-8.9,15-11.5s12.3-3.9,19.5-3.9c4.7,0,9.2,0.6,13.3,1.9c4.2,1.3,7.8,3.1,10.9,5.4
		c3.8,2.9,6.6,6.3,8.5,10.1c1.9,3.8,2.8,8,2.8,12.8C89.3,47.1,88.4,51.4,86.5,55.3z"/>
	<path d="M50.7,38.2c-3.2,0-6,1.7-8.3,5.2c-2.4,3.5-3.5,7.6-3.5,12.5c0,2.6,0.6,4.5,1.7,5.9c1.1,1.3,2.8,2,4.9,2
		c2.3,0,4.4-0.9,6.4-2.6s3.2-4.1,3.9-6.9l2.3-9.1c-0.4-2.3-1.2-4-2.4-5.2S52.8,38.2,50.7,38.2z"/>
</g>
</svg>
