<svg xmlns="http://www.w3.org/2000/svg" viewBox="0 0 100 100"><g fill="#000"><path d="M0,0V100H37.65V86.55a20.33,20.33,0,0,1-4.08.5,16.3,16.3,0,0,1-8.92-2.26,11.78,11.78,0,0,1-3.58-3.37,21.83,21.83,0,0,1-1.95-3.67,12,12,0,0,0-1.54-2.7,7.72,7.72,0,0,0-2.3-1.92l-.08,0A1.68,1.68,0,0,1,16.43,70a10.41,10.41,0,0,1,4.09,1.92,15.46,15.46,0,0,1,3,3.29,22.92,22.92,0,0,0,2.05,2.69,6.22,6.22,0,0,0,2.11,1.46,11.35,11.35,0,0,0,5.61.81,19.5,19.5,0,0,0,3-.53c.5-.12,1-.26,1.49-.42a11.32,11.32,0,0,1,3.36-6.5C23.14,71,19.08,60.62,18.64,49.49c-.23-6,1.5-10.68,4.56-14.26-.88-3-1.72-8.2.92-13,0,0,4.62-.95,13.12,5A48,48,0,0,1,50,25.63a48,48,0,0,1,12.77,1.6c8.5-6,13.12-5,13.12-5,2.65,4.83,1.8,10,.92,13,3.06,3.58,4.8,8.27,4.56,14.26-.44,11.09-4.47,21.39-22.3,23.2a11.32,11.32,0,0,1,3.52,8.2V100H100V0Z"/></g></svg>