<?xml version="1.0" encoding="utf-8"?>
<!-- Generator: Adobe Illustrator 25.1.0, SVG Export Plug-In . SVG Version: 6.00 Build 0)  -->
<svg version="1.1" id="Layer_1" xmlns="http://www.w3.org/2000/svg" xmlns:xlink="http://www.w3.org/1999/xlink" x="0px" y="0px"
	 viewBox="0 0 1195.4 1000" style="enable-background:new 0 0 1195.4 1000;" xml:space="preserve">
<g fill="#ff6600">
	<rect x="862.1" width="333.3" height="333.3"/>
	<path d="M862.1,666.7h187.5c0,103.6-83.9,187.5-187.5,187.5V1000h8.6c179.3,0,324.7-145.4,324.7-324.7v-8.6V413.2H862.1V666.7z"/>
	<path d="M431,333.3h324.7C576.4,333.3,431,478.7,431,658v8.6V1000h333.3V666.7H576.9c0-103.6,83.9-187.5,187.5-187.5V0H431V333.3z"
		/>
	<path d="M0,324.7V1000h333.3V333.3H145.8c0-103.6,83.9-187.5,187.5-187.5V0h-8.6C145.4,0,0,145.4,0,324.7z"/>
</g>
</svg>
